HIERARCHY
ROOT RootJoint
{
    OFFSET   0.000000   0.000000   0.000000
    CHANNELS 6 Xposition Yposition Zposition Xrotation Yrotation Zrotation
    JOINT pelvis_lowerback
    {
        OFFSET   0.000000   0.093605   0.000000
        CHANNELS 3 Xrotation Yrotation Zrotation
        JOINT lowerback_torso
        {
            OFFSET   0.000000   0.100000   0.000000
            CHANNELS 3 Xrotation Yrotation Zrotation
            JOINT torso_head
            {
                OFFSET   0.000000   0.282350   0.000000
                CHANNELS 3 Xrotation Yrotation Zrotation
                End Site
                {
                    OFFSET   0.000000   0.192650   0.000000
                }
            }
            JOINT rTorso_Clavicle
            {
                OFFSET  -0.001000   0.157500   0.000000
                CHANNELS 3 Xrotation Yrotation Zrotation
                JOINT rShoulder
                {
                    OFFSET  -0.117647   0.000000   0.000000
                    CHANNELS 3 Xrotation Yrotation Zrotation
                    JOINT rElbow
                    {
                        OFFSET  -0.245000   0.000000   0.000000
                        CHANNELS 3 Xrotation Yrotation Zrotation
                        JOINT rWrist
                        {
                            OFFSET  -0.240000   0.000000   0.000000
                            CHANNELS 3 Xrotation Yrotation Zrotation
                            End Site
                            {
                                OFFSET  -0.116353  -0.002500   0.000000
                            }
                        }
                    }
                }
            }
            JOINT lTorso_Clavicle
            {
                OFFSET   0.001000   0.157500   0.000000
                CHANNELS 3 Xrotation Yrotation Zrotation
                JOINT lShoulder
                {
                    OFFSET   0.117647   0.000000   0.000000
                    CHANNELS 3 Xrotation Yrotation Zrotation
                    JOINT lElbow
                    {
                        OFFSET   0.245000   0.000000   0.000000
                        CHANNELS 3 Xrotation Yrotation Zrotation
                        JOINT lWrist
                        {
                            OFFSET   0.240000   0.000000   0.000000
                            CHANNELS 3 Xrotation Yrotation Zrotation
                            End Site
                            {
                                OFFSET   0.116353  -0.002500   0.000000
                            }
                        }
                    }
                }
            }
        }
    }
    JOINT rHip
    {
        OFFSET  -0.100000  -0.051395   0.000000
        CHANNELS 3 Xrotation Yrotation Zrotation
        JOINT rKnee
        {
            OFFSET   0.000000  -0.410000   0.000000
            CHANNELS 3 Xrotation Yrotation Zrotation
            JOINT rAnkle
            {
                OFFSET   0.000000  -0.390000   0.000000
                CHANNELS 3 Xrotation Yrotation Zrotation
                JOINT rToeJoint
                {
                    OFFSET   0.000000  -0.050000   0.130000
                    CHANNELS 3 Xrotation Yrotation Zrotation
                    End Site
                    {
                        OFFSET  -0.010000   0.002000   0.060000
                    }
                }
            }
        }
    }
    JOINT lHip
    {
        OFFSET   0.100000  -0.051395   0.000000
        CHANNELS 3 Xrotation Yrotation Zrotation
        JOINT lKnee
        {
            OFFSET   0.000000  -0.410000   0.000000
            CHANNELS 3 Xrotation Yrotation Zrotation
            JOINT lAnkle
            {
                OFFSET   0.000000  -0.390000   0.000000
                CHANNELS 3 Xrotation Yrotation Zrotation
                JOINT lToeJoint
                {
                    OFFSET   0.000000  -0.050000   0.130000
                    CHANNELS 3 Xrotation Yrotation Zrotation
                    End Site
                    {
                        OFFSET   0.010000   0.002000   0.060000
                    }
                }
            }
        }
    }
}
MOTION
Frames: 17
Frame Time:   0.008333
 -2.376719   0.925631   3.975860   0.000000   0.000000   0.000000   0.000000   0.000000   0.000000   0.000000   0.000000   0.000000   0.000000   0.000000   0.000000   0.000000   0.000000   0.000000   0.000000   0.000000   0.000000   0.000000   0.000000   0.000000   0.000000   0.000000   0.000000   0.000000   0.000000   0.000000   0.000000   0.000000   0.000000   0.000000   0.000000   0.000000   0.000000   0.000000   0.000000   0.000000   0.000000   0.000000   0.000000   0.000000   0.000000   0.000000   0.000000   0.000000   0.000000   0.000000   0.000000   0.000000   0.000000   0.000000   0.000000   0.000000   0.000000   0.000000   0.000000   0.000000   0.000000   0.000000   0.000000
 -2.376620   0.925915   3.975961  -0.313412   0.111441   0.029714   0.298627  -0.061159  -0.017413   0.236652  -0.130568  -0.003027  -0.142179  -0.018518  -0.008953   0.192231  -0.233841  -0.262836   0.494124   0.016122   2.428738   0.017968   0.943221  -0.007578   0.238238  -0.229117  -2.274559   0.235392   0.268609  -0.064381   0.937817   0.065761  -2.168583   0.018815  -0.964070   0.011855   0.316360   0.209309   2.361988   0.175628  -0.061360  -0.185564   0.463994   0.000633   0.000200  -0.651113  -0.401938  -0.053842  -0.129482  -0.000236   0.000397   0.158160  -0.113710   0.120124   0.726524  -0.000948  -0.000007  -0.957156   0.220182   0.105049   0.298511  -0.000660   0.000568
 -2.376577   0.926448   3.976080  -0.659095   0.224622   0.072859   0.606650  -0.136838  -0.046852   0.530930  -0.276409  -0.033514  -0.251856  -0.038743  -0.008409   0.378497  -0.457644   0.089145   0.978426   0.067053   5.342845   0.040444   1.852068  -0.013430   0.508081  -0.199875  -3.864141   0.470847   0.513211  -0.803576   1.821698   0.076301  -4.731418   0.042364  -1.890907   0.020726   0.677203   0.177816   3.984825   0.333721  -0.125255  -0.502297   0.961183   0.001703   0.000351  -1.261394  -0.782734  -0.110776  -0.286292  -0.000641   0.000767   0.379276  -0.213845   0.369356   1.511473  -0.002751   0.000142  -1.853214   0.428792   0.208007   0.527674  -0.001308   0.000903
 -2.376594   0.926857   3.976225  -0.986821   0.332762   0.121789   0.902133  -0.222721  -0.089151   0.821680  -0.427811  -0.079515  -0.347070  -0.058026  -0.007139   0.553866  -0.657274   0.876907   1.432136   0.145621   8.453824   0.061504   2.703873  -0.017200   0.773951  -0.104223  -4.697346   0.695191   0.716835  -1.973053   2.644226   0.030959  -7.479878   0.064682  -2.762032   0.026639   1.029680   0.068988   4.830213   0.446854  -0.188706  -0.917831   1.425426   0.002861   0.000410  -1.831542  -1.139121  -0.168841  -0.436094  -0.001066   0.001016   0.628788  -0.301670   0.731012   2.270656  -0.004898   0.000382  -2.689161   0.624041   0.308155   0.733212  -0.001949   0.001119
 -2.376653   0.926869   3.976409  -1.288120   0.433679   0.172800   1.181120  -0.316444  -0.140955   1.095740  -0.582485  -0.133695  -0.433877  -0.076136  -0.007162   0.719953  -0.836279   1.941423   1.850762   0.247191  11.600915   0.078634   3.500002  -0.019262   1.029866   0.011268  -4.961331   0.908122   0.884688  -3.398049   3.407328  -0.065997 -10.290222   0.083211  -3.579956   0.030276   1.369134  -0.080805   5.102997   0.516397  -0.250493  -1.409801   1.848176   0.003929   0.000393  -2.364977  -1.472385  -0.227290  -0.579752  -0.001476   0.001174   0.896344  -0.378694   1.184351   2.991501  -0.007056   0.000669  -3.469882   0.806525   0.405263   0.916580  -0.002507   0.001239
 -2.376737   0.926284   3.976641  -1.563263   0.525612   0.224415   1.442168  -0.416064  -0.199695   1.350455  -0.738898  -0.193869  -0.513613  -0.093105  -0.007890   0.877849  -1.000419   3.158637   2.236297   0.365395  14.701653   0.091059   4.242959  -0.020015   1.273889   0.130993  -4.846807   1.109317   1.024537  -4.957495   4.112886  -0.205896 -13.079678   0.097050  -4.347318   0.032202   1.694517  -0.257766   4.990391   0.548706  -0.309505  -1.960467   2.231783   0.004825   0.000320  -2.864123  -1.783872  -0.285544  -0.716506  -0.001841   0.001264   1.177528  -0.446024   1.709484   3.673869  -0.009032   0.000965  -4.199074   0.976870   0.499103   1.080819  -0.002952   0.001287
 -2.376838   0.924968   3.976927  -1.814491   0.606996   0.275760   1.684707  -0.519934  -0.263664   1.585778  -0.895787  -0.258780  -0.586855  -0.108989  -0.009045   1.028758  -1.155179   4.444181   2.591056   0.493642  17.704412   0.098880   4.935268  -0.019797   1.505290   0.246232  -4.493426   1.298871   1.143864  -6.568960   4.763246  -0.378725 -15.794953   0.106201  -5.066394   0.032855   2.005127  -0.451781   4.631717   0.550243  -0.364867  -2.554601   2.580235   0.005519   0.000212  -3.331089  -2.074882  -0.343129  -0.845426  -0.002142   0.001301   1.469301  -0.504514   2.288902   4.319698  -0.010726   0.001241  -4.880043   1.135712   0.589497   1.228882  -0.003280   0.001281
 -2.376945   0.922273   3.976718  -1.822947   0.618354   0.269645   1.848433  -0.562623  -0.256830   1.665463  -1.025694  -0.319527  -0.732524  -0.228541  -0.051460   1.252356  -1.292019   5.190032   3.074684   0.669968  20.401012   0.100654   5.638713  -0.020840   1.687099   0.380007  -3.203171   1.554319   1.236514  -7.463954   5.220762  -0.600780 -18.522126   0.108490  -5.769992   0.032486   2.260290  -0.738807   3.369315   0.169849  -0.577526  -3.047057   2.992662   0.006159  -0.000748  -3.418260  -2.431756  -0.329205  -0.855527  -0.001757   0.001091   1.550671  -0.464774   2.890770   4.565729  -0.009841   0.001234  -5.274746   1.342928   0.519615   1.399891  -0.003393   0.001425
 -2.377242   0.921277   3.976488  -1.857111   0.587656  -0.100459   2.062640  -0.587503   0.024447   1.765296  -1.132442  -0.251997  -0.875642  -0.342912  -0.082425   1.451662  -1.388818   5.819065   3.510779   0.867777  22.813474   0.098702   6.297905  -0.021132   1.866080   0.520528  -2.111272   1.784524   1.301246  -8.287685   5.631808  -0.836909 -21.017948   0.106911  -6.429269   0.031712   2.497893  -1.032791   2.229001  -0.267321  -0.922405  -2.704413   3.758730   0.004905  -0.003346  -2.965322  -2.881218  -0.074033  -0.805010  -0.001487   0.000497   1.660634  -0.424247   3.789371   4.723257  -0.008595   0.001063  -5.637088   1.540121   0.457977   1.623415  -0.003603   0.001542
 -2.377094   0.920640   3.976253  -1.862363   0.619401  -0.312688   2.262349  -0.644447   0.168650   1.859083  -1.257183  -0.223545  -1.006045  -0.450953  -0.107780   1.637623  -1.484324   6.279379   3.909951   1.064907  24.999231   0.093769   6.915283  -0.020783   2.036367   0.670672  -1.143578   1.993088   1.348272  -8.912924   6.003042  -1.077766 -23.266982   0.102199  -7.049433   0.030462   2.722921  -1.344166   1.206055  -0.627544  -1.163814  -2.531762   4.389982   0.003980  -0.003976  -2.776769  -3.212238   0.004897  -0.733389  -0.001201   0.000050   1.701388  -0.392654   4.398127   4.853064  -0.007315   0.000966  -5.977779   1.722749   0.401160   1.814823  -0.003424   0.001651
 -2.376538   0.920555   3.976059  -1.872220   0.721749  -0.254334   2.469780  -0.727484   0.114068   1.955433  -1.403467  -0.291709  -1.126406  -0.552524  -0.141333   1.813486  -1.583657   6.642653   4.277200   1.252964  26.990291   0.087180   7.489270  -0.020034   2.196885   0.805355  -0.328258   2.178656   1.377564  -9.397998   6.336629  -1.318244 -25.287609   0.095676  -7.629794   0.028819   2.935284  -1.649682   0.363435  -0.874034  -1.365051  -2.659825   4.863499   0.003375  -0.003691  -2.765596  -3.505653   0.033709  -0.673837  -0.000936  -0.000171   1.605056  -0.280046   4.400772   5.009232  -0.005903   0.001103  -6.163044   1.961485   0.211846   1.990815  -0.002511   0.002036
 -2.376004   0.920510   3.975930  -1.867125   0.766099  -0.197388   2.663292  -0.778414   0.067618   2.047786  -1.524521  -0.368964  -1.237107  -0.645931  -0.178388   1.976364  -1.677785   6.882167   4.613670   1.435293  28.787276   0.079614   8.024987  -0.018935   2.349417   0.932129   0.364251   2.353884   1.415195  -9.756348   6.643144  -1.541488 -27.115815   0.087992  -8.169741   0.026928   3.134957  -1.938361  -0.348215  -1.092166  -1.533848  -2.783537   5.252810   0.002840  -0.003450  -2.803313  -3.770726   0.041204  -0.631976  -0.000726  -0.000283   1.501957  -0.210330   4.330773   5.184455  -0.004681   0.001085  -6.359908   2.142057   0.104724   2.131992  -0.001840   0.002005
 -2.375567   0.920463   3.975849  -1.848229   0.746368  -0.152145   2.847521  -0.805519   0.020785   2.136115  -1.619201  -0.442624  -1.340539  -0.732434  -0.213423   2.124923  -1.763468   7.033414   4.920691   1.612683  30.412582   0.071748   8.525232  -0.017605   2.494442   1.051626   0.932099   2.522021   1.463721 -10.017486   6.927362  -1.743491 -28.770533   0.079820  -8.669030   0.024943   3.323020  -2.192702  -0.934660  -1.304112  -1.688161  -2.890686   5.591590   0.002368  -0.003334  -2.851422  -4.016896   0.045218  -0.598248  -0.000565  -0.000354   1.405672  -0.163387   4.267800   5.349700  -0.003713   0.000927  -6.550676   2.296104   0.027940   2.259394  -0.001352   0.001815
 -2.375256   0.920388   3.975891  -1.842326   0.697985  -0.148775   3.014970  -0.791821  -0.075561   2.224363  -1.638052  -0.429027  -1.395350  -0.781772  -0.218547   2.203153  -1.943680   7.039106   5.199333   1.727877  31.553972   0.063271   9.090127  -0.016073   2.556178   1.171388   1.928648   2.626647   1.516720  -9.987278   7.075188  -1.907519 -30.116006   0.071918  -9.270875   0.022571   3.426077  -2.411952  -1.980244  -1.408800  -1.774580  -2.935142   5.753133   0.001921  -0.002875  -2.805896  -4.145840   0.060571  -0.557268  -0.000442  -0.000380   1.334447  -0.053053   4.250746   5.475649  -0.002948   0.000821  -6.518000   2.438961   0.061698   2.328152  -0.001091   0.001580
 -2.374982   0.920321   3.975981  -1.826790   0.625924  -0.157256   3.162213  -0.763373  -0.179211   2.297801  -1.641894  -0.409562  -1.443780  -0.823604  -0.220931   2.266581  -2.111859   6.864714   5.453250   1.831540  32.480765   0.054202   9.619050  -0.014440   2.609830   1.302625   2.708243   2.714851   1.565501  -9.765100   7.206268  -2.053115 -31.230250   0.063022  -9.835922   0.020186   3.514808  -2.651560  -2.822926  -1.497708  -1.852060  -2.963962   5.868314   0.001552  -0.002460  -2.777974  -4.264227   0.074502  -0.515182  -0.000346  -0.000404   1.261616   0.049617   4.245182   5.600378  -0.002340   0.000699  -6.484392   2.570646   0.098235   2.407666  -0.000887   0.001382
 -2.374718   0.920262   3.976112  -1.802848   0.535448  -0.170179   3.294329  -0.729694  -0.284755   2.358634  -1.638670  -0.394120  -1.490560  -0.862036  -0.224031   2.317005  -2.264122   6.568768   5.684899   1.927101  33.246410   0.045421  10.112867  -0.012812   2.660518   1.424844   3.265557   2.793484   1.612115  -9.418545   7.326559  -2.179089 -32.167433   0.054132 -10.360793   0.017939   3.598420  -2.868219  -3.438678  -1.580783  -1.925259  -2.987305   5.957590   0.001253  -0.002102  -2.763425  -4.375129   0.087258  -0.477661  -0.000270  -0.000414   1.192328   0.144315   4.242259   5.715007  -0.001856   0.000570  -6.457426   2.692874   0.133977   2.482003  -0.000722   0.001191
 -2.374452   0.920210   3.976280  -1.772150   0.432621  -0.185117   3.414426  -0.694654  -0.390380   2.409975  -1.631663  -0.383613  -1.535685  -0.897836  -0.227923   2.356904  -2.402660   6.194734   5.896931   2.015117  33.887356   0.037393  10.573631  -0.011263   2.708955   1.535245   3.649438   2.864346   1.656912  -8.994708   7.437676  -2.288589 -32.967244   0.045828 -10.847971   0.015885   3.678768  -3.055164  -3.877042  -1.659888  -1.994291  -3.008238   6.028486   0.001011  -0.001793  -2.758076  -4.478964   0.098806  -0.443942  -0.000210  -0.000413   1.127219   0.232030   4.239409   5.818856  -0.001471   0.000446  -6.435853   2.806591   0.168177   2.550190  -0.000587   0.001014
